PathFileType	4	(X/Y/Z)	c:/Users/goper/Files/vsCode/490R/osim_files/C12/C12_SSWS_06.trc
DataRate	CameraRate	NumFrames	NumMarkers	Units                	OrigDataRate	OrigDataStartFrame	OrigNumFrames
120.00	120.00	9	36	mm	120.0	925	1233
                Frame#	Time	LPSIS			LASIS			LTH1			LTH2			LTH3			LTH4			LLFE			LMFE			LSH1			LSH2			LSH3			LSH4			LLMAL			LMMAL			LCAL			LMTP5			LTOE			LMTP1			RPSIS			RASIS			RTH1			RTH2			RTH3			RTH4			RLFE			RMFE			RSH1			RSH2			RSH3			RSH4			RLMAL			RMMAL			RCAL			RMTP1			RTOE			RMTP5		
		X1	Y1	Z1	X2	Y2	Z2	X3	Y3	Z3	X4	Y4	Z4	X5	Y5	Z5	X6	Y6	Z6	X7	Y7	Z7	X8	Y8	Z8	X9	Y9	Z9	X10	Y10	Z10	X11	Y11	Z11	X12	Y12	Z12	X13	Y13	Z13	X14	Y14	Z14	X15	Y15	Z15	X16	Y16	Z16	X17	Y17	Z17	X18	Y18	Z18	X19	Y19	Z19	X20	Y20	Z20	X21	Y21	Z21	X22	Y22	Z22	X23	Y23	Z23	X24	Y24	Z24	X25	Y25	Z25	X26	Y26	Z26	X27	Y27	Z27	X28	Y28	Z28	X29	Y29	Z29	X30	Y30	Z30	X31	Y31	Z31	X32	Y32	Z32	X33	Y33	Z33	X34	Y34	Z34	X35	Y35	Z35	X36	Y36	Z36

925	7.70000	-3266.01709	1074.39233	359.66379	-3449.04150	1037.19055	414.79605	0.00000	0.00000	0.00000	-3418.60767	709.25897	458.59152	-3465.30371	766.75043	462.81427	-3470.05151	722.39050	456.40182	-3486.27344	546.51685	406.69336	-3473.59570	544.00879	281.81821	-3425.61377	447.52097	426.17279	-3427.52148	400.15918	432.10934	-3486.89478	443.86768	417.31442	-3479.65430	397.19995	421.87769	-3431.96826	107.92113	379.85147	-3438.69067	114.65794	302.34882	0.00000	0.00000	0.00000	-3563.87012	50.51839	402.13901	-3611.59546	81.64703	332.88541	-3578.52515	51.54509	291.36401	0.00000	0.00000	0.00000	-3440.87207	1040.50610	160.91844	-3345.12207	750.29437	95.82243	0.00000	0.00000	0.00000	0.00000	0.00000	0.00000	-3410.96069	706.93549	93.66385	-3369.92944	527.51807	112.83013	-3393.08521	514.90137	245.47168	-3263.76611	507.49908	104.41922	-3232.09131	479.30511	97.99107	0.00000	0.00000	0.00000	-3264.06689	437.11490	92.32980	-3015.77979	287.86441	145.32352	-3049.03296	268.61853	222.15060	-2975.31616	339.74554	200.01680	-3014.77856	128.69054	227.53465	-3037.93311	96.28329	187.82288	-2983.29248	123.02875	127.14322
926	7.70833	-3275.64478	1076.07751	360.45584	-3458.53174	1038.64246	415.38052	0.00000	0.00000	0.00000	-3422.99854	710.31598	458.97083	-3471.58423	767.08820	463.54758	-3476.02002	722.82556	457.09616	-3489.46191	546.45575	407.21890	-3477.39209	544.23474	282.37537	-3428.43701	448.00348	426.72293	-3431.42896	401.31409	433.12833	-3489.55298	443.93643	417.66275	-3482.03491	397.27826	422.19751	-3432.25244	108.21107	379.89310	-3439.86377	115.16438	301.80096	0.00000	0.00000	0.00000	-3564.03540	50.50204	402.19186	-3611.80493	81.30176	332.94376	-3578.65820	51.45183	291.36914	0.00000	0.00000	0.00000	-3450.58325	1043.10461	161.50383	-3357.54834	753.31378	95.36887	0.00000	0.00000	0.00000	0.00000	0.00000	0.00000	-3427.27515	710.17279	93.21732	-3390.17432	530.01385	112.10291	-3411.71704	517.48383	244.79982	-3284.64404	510.15573	104.34515	-3251.21265	482.15588	97.83699	0.00000	0.00000	0.00000	-3283.91528	439.83051	92.03532	-3036.79688	289.45010	146.24335	-3070.56738	270.88016	222.95145	-2994.03906	339.14279	201.04283	-3041.85107	129.54227	226.60544	-3066.68872	98.65445	186.87448	-3011.24463	123.05453	124.10062
927	7.71667	-3285.12231	1077.84595	361.12088	-3467.90039	1040.06018	415.91656	0.00000	0.00000	0.00000	-3428.34985	711.23712	459.53107	-3477.62231	767.43250	464.35986	-3481.35059	722.99719	457.83508	-3492.50293	546.48090	407.78314	-3481.04468	544.42755	282.87698	-3431.17847	448.25735	427.27328	-3433.83032	401.52713	433.50156	-3492.25684	443.80869	417.86469	-3484.40771	397.15439	422.30753	-3432.77563	108.64338	379.95557	-3440.11890	115.46338	301.97107	0.00000	0.00000	0.00000	-3564.12012	50.40837	402.23517	-3611.99268	80.96214	332.99615	-3578.84717	51.37134	291.35809	0.00000	0.00000	0.00000	-3460.36694	1045.69885	162.13260	-3373.00513	755.28052	94.99294	0.00000	0.00000	0.00000	0.00000	0.00000	0.00000	-3443.65063	713.46869	92.77609	-3409.97339	532.70532	111.44943	-3431.86279	520.03656	244.14601	-3303.68091	513.09595	104.07104	-3271.94824	484.79044	98.21411	0.00000	0.00000	0.00000	-3303.81226	442.66629	91.79457	-3058.49023	290.34534	146.99995	-3092.46509	272.50949	223.65482	-3012.17456	337.59961	201.69020	-3069.84106	130.30347	225.73738	-3096.23096	100.71626	185.90283	-3039.42944	123.54021	122.75834
928	7.72500	-3294.61841	1079.69263	361.63705	-3477.19580	1041.40271	416.46780	0.00000	0.00000	0.00000	-3433.32910	712.11438	459.98117	-3483.32007	767.69879	465.17111	-3486.28662	723.09625	458.57886	-3495.41602	546.54510	408.45758	-3487.58569	547.11487	281.89438	-3433.93579	448.53946	427.71613	-3436.09448	401.69308	433.72510	-3494.90039	443.82907	418.00464	-3486.87793	397.29028	422.38760	-3432.06177	108.85633	379.68021	-3440.32104	115.72132	302.14337	0.00000	0.00000	0.00000	-3564.15308	50.23452	402.26642	-3612.11206	80.62777	332.97943	-3579.03003	51.31229	291.34119	0.00000	0.00000	0.00000	-3469.96045	1047.99573	162.77057	-3388.39136	757.32605	94.55344	0.00000	0.00000	0.00000	0.00000	0.00000	0.00000	-3458.12720	715.97656	93.58873	-3429.65186	535.74268	110.87946	-3451.93506	522.81738	243.78564	-3323.42871	515.89832	104.06629	-3290.96313	487.64954	98.36501	0.00000	0.00000	0.00000	-3323.73706	445.59885	91.61238	-3079.78467	291.05692	147.04889	-3114.71753	273.41922	224.17122	-3031.43750	335.11395	202.29556	-3097.49902	130.03447	224.62190	-3125.83740	102.09152	185.53447	-3069.16309	123.37632	121.19083
929	7.73333	-3304.09839	1081.54553	361.99780	-3486.39185	1042.73584	417.09161	0.00000	0.00000	0.00000	-3437.90405	712.88965	460.34061	-3488.75464	767.84906	465.99454	-3491.16089	723.24133	459.35342	-3497.98682	546.44373	408.93091	-3487.72705	544.81708	284.52115	-3436.59180	448.81549	428.07059	-3438.42114	401.99670	433.92560	-3497.41650	443.78201	418.05637	-3489.13550	397.28912	422.37048	-3433.45044	109.39137	379.96967	-3440.53076	115.97718	302.28018	0.00000	0.00000	0.00000	-3564.20288	50.08790	402.30008	-3612.34302	80.33426	333.00650	-3579.18701	51.28448	291.30212	0.00000	0.00000	0.00000	-3479.46191	1050.20459	163.42567	-3403.80005	759.36505	94.12122	0.00000	0.00000	0.00000	0.00000	0.00000	0.00000	-3476.18408	720.32178	92.04339	-3448.87915	538.75928	110.44594	-3471.67456	525.84796	243.73033	-3343.06689	518.63263	104.24786	-3310.74414	490.00699	98.69832	0.00000	0.00000	0.00000	-3343.76929	448.28000	91.57678	-3102.03149	290.21967	147.51236	-3136.29321	273.37241	224.43579	-3051.23364	331.54312	202.70523	-3126.68604	129.64394	223.61401	-3157.27295	103.46648	183.62912	-3099.15039	122.64834	119.78206
930	7.74167	-3313.33301	1083.39819	362.13898	-3495.46606	1043.98828	417.74609	0.00000	0.00000	0.00000	-3442.38110	713.69489	460.53494	-3493.78564	767.80933	466.76178	-3495.74854	723.27966	460.03452	-3500.67383	546.51276	409.38766	-3491.33325	544.99982	284.82635	-3438.96533	449.31235	428.24332	-3440.55786	402.38614	434.05283	-3499.67896	443.81238	418.06644	-3491.11255	397.37946	422.34888	-3433.99170	109.92323	379.96231	-3440.78394	116.25734	302.28555	0.00000	0.00000	0.00000	-3564.41431	50.12275	402.31064	-3612.79761	79.98232	332.40903	-3579.31226	51.21378	291.24353	0.00000	0.00000	0.00000	-3488.89380	1052.17139	164.10800	-3419.05249	761.52008	93.74760	0.00000	0.00000	0.00000	0.00000	0.00000	0.00000	-3492.25244	723.87585	91.69197	-3468.05322	541.91449	110.14366	-3491.75879	529.28900	243.54846	-3363.62451	521.01715	104.76250	-3331.60962	492.07996	99.30954	0.00000	0.00000	0.00000	-3363.84766	450.83701	91.55869	-3124.98926	288.39371	147.77596	-3159.88989	272.35828	224.77307	-3071.82861	327.18509	202.90575	-3155.26636	128.07036	222.28360	-3186.87817	103.65784	182.65157	-3129.14453	121.43319	118.38004
931	7.75000	-3322.60327	1085.21375	362.11282	-3504.46851	1045.01025	418.44717	0.00000	0.00000	0.00000	-3446.73682	714.53784	460.64206	-3498.81274	767.78326	467.46219	-3500.07397	723.14685	460.63733	-3501.60278	546.11127	409.20792	-3496.43481	545.23242	285.78528	-3440.35815	449.99716	428.31775	-3442.19556	402.86249	434.02359	-3501.72925	444.00754	418.13083	-3492.84302	397.58121	422.42844	-3433.33862	110.28336	379.50974	-3441.01953	116.49225	302.25436	0.00000	0.00000	0.00000	-3564.55054	50.15028	402.25595	-3612.24756	79.37606	333.13669	-3579.46118	51.08422	291.18555	0.00000	0.00000	0.00000	-3498.35449	1053.89209	164.88014	-3434.19434	763.78082	93.30441	0.00000	0.00000	0.00000	0.00000	0.00000	0.00000	-3508.03271	727.41736	91.43696	-3486.88037	544.97363	109.94157	-3511.50586	532.66284	243.46823	-3381.86328	523.11511	104.87663	-3350.27905	493.84503	99.44960	0.00000	0.00000	0.00000	-3383.95337	452.85260	91.60177	-3148.25073	285.58804	147.74431	-3184.85986	270.19162	224.33801	-3093.38208	322.03152	203.05101	-3183.83545	125.97430	221.88231	-3217.12769	103.63705	181.24707	-3158.90649	119.36366	116.96582
932	7.75833	-3331.89062	1086.96436	362.00870	-3513.49048	1045.90979	419.18967	0.00000	0.00000	0.00000	-3445.71387	717.01556	459.01291	-3503.78979	767.69550	468.06384	-3504.27173	722.97791	461.25775	-3503.88574	546.04370	409.49573	-3499.50537	544.94983	285.68768	-3442.73975	450.29022	428.21304	-3443.80957	403.37656	434.03061	-3503.43091	444.18237	418.29865	-3494.42017	397.85318	422.50894	-3433.67822	110.74899	379.38992	-3440.38208	115.63617	301.80981	0.00000	0.00000	0.00000	-3564.56104	50.02349	402.25763	-3612.58618	79.09084	333.10666	-3579.62964	50.92143	291.10165	0.00000	0.00000	0.00000	-3507.86768	1055.40027	165.71175	-3448.67993	766.01910	92.84893	0.00000	0.00000	0.00000	-3518.50806	778.09772	91.25912	-3523.56738	730.97198	91.18636	-3505.69800	548.03619	109.90878	-3530.96753	536.27527	243.50632	-3400.97632	524.72760	105.21416	-3369.99438	494.86752	99.73017	0.00000	0.00000	0.00000	-3404.53125	454.50671	91.75754	-3172.08789	282.01898	147.56660	-3209.22290	267.10019	224.03554	-3115.83862	316.12439	203.08426	-3213.31055	123.38562	219.66327	-3248.05688	102.66972	179.69539	-3188.76099	116.78205	115.59321
933	7.76667	-3341.28198	1088.49487	361.89139	-3522.43359	1046.69604	420.09299	0.00000	0.00000	0.00000	-3449.65796	717.76971	458.72858	-3511.25635	768.58453	468.60052	-3508.45972	722.76147	461.75589	-3506.06787	545.88580	409.69101	-3502.63818	544.74634	285.89746	-3444.23608	450.80560	428.12720	-3445.14404	403.87390	433.95688	-3504.94727	444.29669	418.47513	-3495.54346	397.95255	422.65622	-3434.00269	111.19262	379.28320	-3440.64429	115.93382	301.74557	0.00000	0.00000	0.00000	-3564.58228	49.92045	402.24915	-3612.85474	78.89292	333.08716	-3579.77319	50.81165	291.03189	0.00000	0.00000	0.00000	-3517.17651	1056.68188	166.51398	-3463.07715	768.20563	92.46656	0.00000	0.00000	0.00000	-3532.28662	781.30731	91.15881	-3538.67285	734.41339	91.05923	-3524.00781	550.99512	110.02110	-3549.95020	540.00946	243.48003	-3419.82446	525.89789	105.53175	-3389.65112	495.29175	99.97358	0.00000	0.00000	0.00000	-3424.95996	455.65402	92.00134	-3196.32935	277.61581	147.24287	-3234.04126	263.48563	223.36893	-3138.83154	309.56479	203.03349	-3243.17065	120.32493	218.11818	-3277.75781	101.06064	177.72849	-3218.38184	113.55266	114.08920
